HIERARCHY
ROOT Hips
{
	OFFSET 0.0000 0.0000 0.0000
	CHANNELS 6 Xposition Yposition Zposition Zrotation Xrotation Yrotation
	JOINT Ab
	{
		OFFSET -0.0000 8.0846 -0.0000
		CHANNELS 3 Zrotation Xrotation Yrotation
		JOINT Chest
		{
			OFFSET -0.0000 25.0068 -0.0000
			CHANNELS 3 Zrotation Xrotation Yrotation
			JOINT Neck
			{
				OFFSET -0.0000 25.0068 0.0000
				CHANNELS 3 Zrotation Xrotation Yrotation
				JOINT Head
				{
					OFFSET -0.0000 10.7556 0.0000
					CHANNELS 3 Zrotation Xrotation Yrotation
					End Site
					{
						OFFSET -0.0000 16.6222 0.0000
					}
				}
			}
			JOINT LeftCollar
			{
				OFFSET -0.0000 25.0068 0.0000
				CHANNELS 3 Zrotation Xrotation Yrotation
				JOINT LeftShoulder
				{
					OFFSET 19.5556 -0.0000 0.0000
					CHANNELS 3 Zrotation Xrotation Yrotation
					JOINT LeftElbow
					{
						OFFSET 27.1828 0.0000 0.0000
						CHANNELS 3 Zrotation Xrotation Yrotation
						JOINT LeftWrist
						{
							OFFSET 23.3157 0.0000 0.0000
							CHANNELS 3 Zrotation Xrotation Yrotation
							End Site
							{
								OFFSET 0.0000 -14.6667 0.0000
							}
						}
					}
				}
			}
			JOINT RightCollar
			{
				OFFSET -0.0000 25.0068 0.0000
				CHANNELS 3 Zrotation Xrotation Yrotation
				JOINT RightShoulder
				{
					OFFSET -19.5556 0.0000 0.0000
					CHANNELS 3 Zrotation Xrotation Yrotation
					JOINT RightElbow
					{
						OFFSET -27.1828 0.0000 0.0000
						CHANNELS 3 Zrotation Xrotation Yrotation
						JOINT RightWrist
						{
							OFFSET -23.3157 0.0000 0.0000
							CHANNELS 3 Zrotation Xrotation Yrotation
							End Site
							{
								OFFSET -0.0000 -14.6667 0.0000
							}
						}
					}
				}
			}
		}
	}
	JOINT LeftHip
	{
		OFFSET 11.7333 0.0000 0.0000
		CHANNELS 3 Zrotation Xrotation Yrotation
		JOINT LeftKnee
		{
			OFFSET -0.0000 -40.8688 0.0000
			CHANNELS 3 Zrotation Xrotation Yrotation
			JOINT LeftAnkle
			{
				OFFSET -0.0000 -44.4337 0.0000
				CHANNELS 3 Zrotation Xrotation Yrotation
				End Site
				{
					OFFSET -0.0000 -4.8889 16.6222
				}
			}
		}
	}
	JOINT RightHip
	{
		OFFSET -11.7333 0.0000 0.0000
		CHANNELS 3 Zrotation Xrotation Yrotation
		JOINT RightKnee
		{
			OFFSET -0.0000 -40.8688 0.0000
			CHANNELS 3 Zrotation Xrotation Yrotation
			JOINT RightAnkle
			{
				OFFSET -0.0000 -44.4337 0.0000
				CHANNELS 3 Zrotation Xrotation Yrotation
				End Site
				{
					OFFSET -0.0000 -4.8889 16.6222
				}
			}
		}
	}
}
MOTION
Frames: 13
Frame Time: 0.010000
-0.8321 88.7293 189.4966 2.2126 358.8233 176.9402 2.0481 0.0483 358.3973 358.3760 10.7476 358.5518 1.5177 343.4243 1.7826 2.5421 7.8611 1.3847 338.4946 358.2710 9.0867 300.2951 29.5734 356.6691 18.1003 353.6736 321.8853 81.8972 359.9160 339.8361 23.1954 358.8908 354.5806 53.8224 48.3478 13.7106 336.8641 352.6969 34.6271 275.7777 351.4610 21.2275 2.8163 356.8801 357.6652 359.3874 11.5811 357.7674 355.3663 350.1434 21.9788 0.8555 351.5678 359.6781 358.9030 19.9208 6.1525 357.9799 343.8585 337.5673 
-0.8671 88.7290 189.4653 2.2079 358.8419 176.8859 2.0625 0.1526 358.4201 358.3482 10.7329 358.5775 1.4877 343.4176 1.8007 2.5589 7.8597 1.4094 338.4894 358.2436 9.1822 300.3042 29.6750 356.6541 18.1282 353.6867 321.9323 82.1836 359.8032 340.0801 23.1858 358.8929 354.6366 53.6051 48.4893 13.9418 336.7852 352.6310 34.7852 275.8504 351.2052 20.9037 2.7924 356.8904 357.8505 359.4050 11.6585 357.5735 354.9622 349.9884 21.9415 0.8276 351.5959 359.7357 358.9107 19.9256 6.1676 357.5846 343.9069 337.4726 
-0.9066 88.7290 189.4439 2.1929 358.8046 176.8558 2.0587 0.2036 358.4407 358.3233 10.7232 358.6020 1.5049 343.3827 1.7830 2.4872 7.8908 1.3898 338.4802 358.2588 9.2224 300.3551 29.7305 356.6309 18.1661 353.6822 321.9267 81.9506 359.7963 340.0698 23.1887 358.9080 354.6049 53.2259 48.7470 14.3779 336.8107 352.6196 35.0083 275.6117 351.4175 21.0418 2.7705 356.7721 357.6961 359.3319 11.8561 357.6818 355.4583 349.9347 22.0920 0.7831 351.5625 359.7802 358.9302 19.9394 6.1767 357.5867 343.8917 337.4443 
-0.9430 88.7317 189.4148 2.1873 358.7821 176.8284 2.0638 0.2592 358.4715 358.2940 10.7432 358.6372 1.4734 343.2973 1.7590 2.5020 7.9622 1.3661 338.4803 358.2336 9.2495 300.4036 29.8614 356.6269 18.2717 353.6115 321.8827 81.7900 359.7851 340.1231 23.1889 358.8821 354.5710 52.9327 48.9555 14.7431 336.6797 352.5063 35.2007 275.6737 351.4553 20.9054 2.7468 356.7411 357.6801 359.3108 11.9215 357.6748 355.2657 349.8245 22.0933 0.7564 351.5609 359.8135 358.9365 19.9253 6.1495 357.6040 343.8771 337.4666 
-0.9815 88.7318 189.3853 2.1824 358.7409 176.8024 2.0341 0.2844 358.4842 358.3520 10.7828 358.6450 1.3788 343.2623 1.7293 2.5281 7.9681 1.3498 338.4762 358.2421 9.2213 300.3714 29.7476 356.6709 18.1993 353.6553 321.8405 81.7722 359.7356 340.0673 23.1351 358.9022 354.5667 52.6747 49.1145 15.0834 336.6204 352.4363 35.3947 275.7794 351.3865 20.8724 2.7268 356.6914 357.6765 359.2841 11.9892 357.6522 355.4674 349.7906 22.1859 0.7268 351.5446 359.8411 358.9479 19.9067 6.1216 357.6092 343.8570 337.4871 
-1.0242 88.7319 189.3486 2.1836 358.7252 176.7737 1.9963 0.2583 358.3481 358.5877 10.8567 358.4873 0.8742 343.4371 1.7274 2.8424 7.8066 1.4124 338.3426 358.2360 9.2181 300.2667 29.5507 356.7477 18.1901 353.6871 321.8266 81.7095 359.7176 340.0494 23.0136 358.9361 354.7355 52.1979 49.3441 15.5378 336.6159 352.4442 35.4347 275.6327 351.3299 20.7277 2.7077 356.6926 357.6746 359.2635 12.0137 357.6351 355.3906 349.7141 22.2022 0.6984 351.5613 359.8800 358.9536 19.8872 6.1374 357.6441 343.8330 337.4767 
-1.0663 88.7336 189.3158 2.1811 358.6736 176.7599 1.9640 0.3012 358.3988 358.6137 10.8649 358.5370 0.9096 343.3256 1.8030 2.7438 7.9083 1.4835 338.3122 358.1993 9.3569 300.3155 29.6322 356.6931 18.2859 353.6360 321.8138 81.5940 359.7064 340.1252 22.9858 358.9545 354.8111 51.9013 49.5614 15.8946 336.5162 352.3570 35.6007 275.4650 351.1344 20.7985 2.6857 356.6452 357.6682 359.2441 12.0540 357.6390 355.5148 349.6823 22.2429 0.6668 351.5480 359.9232 358.9741 19.8524 6.1059 357.6643 343.8215 337.4720 
-1.1109 88.7352 189.2835 2.1790 358.6116 176.7275 1.8407 0.4673 358.5454 358.7587 10.6362 358.6703 0.9756 343.3738 1.7256 2.5654 7.9238 1.3989 338.2411 358.2055 9.2590 300.3054 29.5163 356.8644 18.1148 353.7114 321.7866 81.6518 359.6592 339.9367 22.9269 358.9343 354.6686 51.8067 49.9184 16.1351 336.2052 352.2192 35.4658 275.1955 350.2901 21.0550 2.6673 356.5936 357.6536 359.2153 12.0944 357.6290 355.4455 349.6032 22.2727 0.6359 351.5114 359.9576 358.9852 19.8388 6.1027 357.6077 343.8101 337.4662 
-1.1590 88.7359 189.2371 2.1897 358.5744 176.6852 1.8576 0.5170 358.5725 358.7612 10.6479 358.6974 0.9220 343.3536 1.6674 2.6186 7.8986 1.3490 338.2543 358.2198 9.1884 300.2632 29.5349 356.8754 18.1299 353.6796 321.8029 81.6466 359.6404 339.9389 22.9277 358.9009 354.5292 51.4311 50.1069 16.5849 336.0635 352.1655 35.6755 275.3180 350.3740 20.9919 2.6579 356.5827 357.6229 359.1818 12.1193 357.6409 355.4340 349.5276 22.3249 0.6196 351.5214 0.0172 358.9923 19.7994 6.0657 357.6778 343.7794 337.5053 
-1.2105 88.7366 189.1964 2.1823 358.5019 176.6681 1.8089 0.4856 358.6123 358.8654 10.8098 358.7277 0.8268 343.1644 1.6604 2.6395 7.9395 1.3561 338.2693 358.2131 9.2260 300.2307 29.7051 356.7576 18.2573 353.6147 321.8278 81.5489 359.6104 340.0491 22.8192 358.8842 354.4503 51.0195 50.2615 17.1426 335.9193 352.0781 35.9211 275.5368 350.4319 21.1227 2.6279 356.5119 357.5579 359.1498 12.1765 357.6690 355.7460 349.5132 22.4231 0.5815 351.4872 0.0327 358.9950 19.7743 6.1427 357.7446 343.7429 337.4393 
-1.2639 88.7396 189.1505 2.1800 358.4416 176.6273 1.8295 0.5520 358.6249 358.8415 10.7495 358.7435 0.8158 343.1632 1.6703 2.6009 7.9586 1.3679 338.2668 358.2224 9.2925 300.2359 29.7962 356.7215 18.3077 353.6120 321.9342 81.4761 359.5272 340.1207 22.8289 358.8826 354.4324 50.7594 50.3962 17.4533 335.8387 352.0137 36.1014 275.5914 350.3009 21.1280 2.6006 356.4775 357.5309 359.1246 12.2097 357.6574 355.4762 349.3861 22.4290 0.5476 351.4621 0.0714 359.0006 19.7513 6.0907 357.7458 343.7226 337.4908 
-1.3214 88.7431 189.1035 2.1678 358.3627 176.5929 1.8209 0.5782 358.6470 358.8066 10.7288 358.7685 0.8978 343.0916 1.7047 2.4775 8.0872 1.3964 338.2929 358.2206 9.2593 300.1812 29.5440 356.7978 18.2172 353.6431 321.8523 81.3933 359.5458 339.9642 22.8362 358.8776 354.4740 50.5821 50.5542 17.6979 335.6961 351.9254 36.3004 275.4095 350.2880 21.1236 2.5571 356.4218 357.5446 359.1156 12.2403 357.6354 355.7625 349.3496 22.5074 0.5045 351.4221 0.1224 359.0100 19.7039 5.8795 357.8860 343.6852 337.6942 
-1.3879 88.7434 189.0589 2.1472 358.2605 176.5719 1.8278 0.6009 358.6469 358.7777 10.6761 358.7719 0.8973 343.0965 1.7265 2.4442 8.1117 1.4194 338.3062 358.2518 9.2153 300.1122 29.2365 356.8979 18.0619 353.7130 321.7357 81.3046 359.5946 339.7757 22.8448 358.8720 354.4949 50.3288 50.6823 17.9737 335.6498 351.8626 36.5790 275.0106 350.5914 21.0754 2.4990 356.3179 357.4855 359.0907 12.3085 357.6669 355.5255 349.2302 22.5044 0.4416 351.3507 0.1160 359.0095 19.6912 5.9017 357.9596 343.6479 337.7154 
